<svg xmlns="http://www.w3.org/2000/svg" viewBox="-2.384185791015625e-7 -3.5762786865234375e-7 184 32" fill="none" preserveAspectRatio="xMidYMid meet">
<path d="M42 16.2308H48.2382V20.7436H42V16.2308Z" fill="#D8D8D8"></path>
<path d="M61.951 4.51282H53.3736V0.259109H75.3009V4.51282H66.7234V31.7409H61.951V4.51282Z" fill="#D8D8D8"></path>
<path d="M78.7426 0.259109H98.7566V4.77193H83.4935V13.7544H96.5209V17.9865H83.4935V27.2281H98.7566V31.7409H78.7426V0.259109Z" fill="#D8D8D8"></path>
<path d="M118.042 20.4696L113.506 6.71525H113.42L108.884 20.4696H118.042ZM119.396 24.7018H107.508L105.1 31.7409H100.07L111.464 0.259109H115.441L126.834 31.7409H121.825L119.396 24.7018Z" fill="#D8D8D8"></path>
<path d="M130.297 0.259109H134.769L143.755 20.7719L152.569 0.259109H157.062V31.7409H152.311V12.1134H152.203L145.647 27.2281H141.691L135.134 12.1134H135.048V31.7409H130.297V0.259109Z" fill="#D8D8D8"></path>
<path d="M164.136 24.0972C166.63 26.1556 169.597 27.1993 173.036 27.2281C177.106 27.1705 179.17 25.7094 179.228 22.8448C179.256 20.4984 177.895 19.0877 175.143 18.6127C173.882 18.4399 172.499 18.2456 170.994 18.0297C168.3 17.5834 166.25 16.583 164.846 15.0283C163.398 13.4305 162.675 11.4872 162.675 9.19838C162.675 6.44894 163.585 4.23212 165.405 2.54791C167.168 0.878092 169.668 0.0287899 172.907 0C176.806 0.0863698 180.195 1.17319 183.076 3.26046L180.431 7.19028C178.081 5.63563 175.494 4.82951 172.671 4.77193C171.209 4.77193 169.991 5.139 169.016 5.87314C167.999 6.63608 167.476 7.77328 167.447 9.28475C167.447 10.1916 167.798 11.0121 168.5 11.7463C169.203 12.4948 170.328 13.013 171.875 13.3009C172.735 13.4449 173.911 13.6104 175.401 13.7976C178.339 14.2006 180.51 15.2587 181.915 16.9717C183.305 18.6559 184 20.6136 184 22.8448C183.842 28.8619 180.173 31.9136 172.993 32C168.35 32 164.359 30.5605 161.019 27.6815L164.136 24.0972Z" fill="#D8D8D8"></path>
<path d="M6.47435 32C6.09452 32 5.71468 31.9126 5.35212 31.7552C4.00544 31.1259 3.41842 29.5174 4.03997 28.1538L16.1255 1.5798C16.7471 0.216138 18.3355 -0.378279 19.6822 0.251104C21.0288 0.880488 21.6159 2.48891 20.9943 3.85258L8.90873 30.4265C8.45984 31.4231 7.49299 32 6.47435 32Z" fill="url(#4b0473bc-54ad-4a31-acf1-e5c316f58e53)"></path>
<path d="M18.56 21.5107C8.99512 21.5107 4.41987 16.3183 2.26173 11.9651C0.0172652 7.43703 0 2.90896 0 2.71665C0 1.21312 1.19129 0.00680542 2.67609 0.00680542C4.14363 0.00680542 5.35219 1.21312 5.35219 2.71665C5.35219 2.80407 5.40398 6.31812 7.13049 9.7098C9.28863 13.9581 13.1388 16.1085 18.56 16.1085C23.9812 16.1085 27.8314 13.9581 29.9895 9.7098C31.716 6.30064 31.7678 2.75162 31.7678 2.71665C31.7678 1.21312 32.9591 0.00680542 34.4439 0.00680542C35.9287 0.00680542 37.12 1.23061 37.12 2.71665C37.12 2.90896 37.1027 7.43703 34.8583 11.9651C32.7001 16.3183 28.1249 21.5107 18.56 21.5107Z" fill="#D8D8D8"></path>
<path d="M30.6454 32C29.6267 32 28.6599 31.4231 28.211 30.4265L16.1254 3.85258C15.5039 2.48891 16.0909 0.880488 17.4376 0.251104C18.7842 -0.378279 20.3726 0.216138 20.9942 1.5798L33.0798 28.1538C33.7013 29.5174 33.1143 31.1259 31.7676 31.7552C31.405 31.9126 31.0252 32 30.6454 32Z" fill="url(#210f5e10-d409-4996-84a6-6aaec9bd94b0)"></path>
<defs>
<linearGradient id="4b0473bc-54ad-4a31-acf1-e5c316f58e53" x1="12.5171" y1="0" x2="12.5171" y2="32" gradientUnits="userSpaceOnUse">
    <stop stop-color="#FFCB24"></stop>
    <stop offset="1" stop-color="#FF4D00"></stop>
</linearGradient>
<linearGradient id="210f5e10-d409-4996-84a6-6aaec9bd94b0" x1="24.6026" y1="0" x2="24.6026" y2="32" gradientUnits="userSpaceOnUse">
    <stop stop-color="#FFCB24"></stop>
    <stop offset="1" stop-color="#FF4D00"></stop>
</linearGradient>
</defs>
        </svg>
