<svg width="40" height="40" viewBox="0 0 40 40" fill="none" xmlns="http://www.w3.org/2000/svg">
<path d="M9 13C9 10.7909 10.7909 9 13 9H27C29.2091 9 31 10.7909 31 13V22C31 24.2091 29.2091 26 27 26H13C10.7909 26 9 24.2091 9 22V13Z" stroke="white" stroke-width="2" stroke-linecap="round" stroke-linejoin="round"/>
<path opacity="0.6" d="M29.5 25.5V28C29.5 29.6569 28.1569 31 26.5 31H13.5C11.8431 31 10.5 29.6569 10.5 28V25.5M20 15H26M20 20H23M15 15V15C15.5523 15 16 15.4477 16 16V16C16 16.5523 15.5523 17 15 17V17C14.4477 17 14 16.5523 14 16V16C14 15.4477 14.4477 15 15 15Z" stroke="white" stroke-width="2" stroke-linecap="round" stroke-linejoin="round"/>
</svg>
